<?xml version="1.0" encoding="utf-8"?>
<svg xmlns="http://www.w3.org/2000/svg" id="layer" x="0px" y="0px" viewBox="23.293 65.469 227.687 40.663" style="enable-background:new 0 0 274 171;">
  <g>
    <path d="M212.7,89.6c0.6-2.7,1-5,1-7.3c0-9.2-6.2-16.6-16.7-16.6c-11.5,0-20.6,8.6-22.4,19.7c-1.9,11.8,5.4,19.7,16.6,19.7 c8.9,0,16.3-5,20.2-12.6h-13.6c-1.7,1.8-3.9,2.2-5.9,2.2c-3.9-0.1-5.7-2.4-5.8-5.3H212.7z M196.3,75.7c3.5,0,5.8,2.2,5.7,5.5H188 C189.4,78,192.5,75.7,196.3,75.7z"/>
    <path d="M241.5,66c-4.7,0-8.6,3.8-8.6,8.5c0,4.7,3.9,8.6,8.6,8.6c4.7,0,8.6-3.9,8.5-8.6C250.1,69.8,246.2,66,241.5,66z"/>
    <path d="M161.1,65.7c-4.3,0-9.5,2.6-12,6l1.4-5h-12.2l-6.6,37.6h13.1l3.8-21.3c0.6-3.5,3.4-6,6.7-6c3.2,0,4.7,2.6,4.1,6l-3.8,21.3 h13.1l4.1-23.1C174.3,71.8,169.7,65.7,161.1,65.7z"/>
    <polygon points="26.1,66.7 60.5,66.7 58.4,78.8 47.9,78.8 43.4,104.3 30.3,104.3 34.8,78.8 23.9,78.8 &#9;"/>
    <path d="M63.5,66.7h13.1l-3.7,20.9c-0.6,3.6,1,5.8,4.2,5.8c3.3,0,5.8-2.3,6.5-5.8l3.7-20.9h13.1l-3.5,20.1 c-2.2,12.6-10.4,18.4-21.3,18.4c-11.2,0-17.6-6.1-15.4-18.5L63.5,66.7z"/>
    <polygon points="97.1,104.3 110.1,104.3 116.8,66.7 103.7,66.7 &#9;"/>
    <path d="M125.5,66c-4.7,0-8.5,3.8-8.5,8.5c0,4.7,3.9,8.6,8.5,8.6c4.7,0,8.6-3.9,8.6-8.6C134.1,69.8,130.2,66,125.5,66z"/>
    <polygon points="213.1,104.3 226.1,104.3 232.8,66.7 219.7,66.7 &#9;"/>
  </g>
</svg>
