<?xml version="1.0" encoding="utf-8"?>
<svg xmlns="http://www.w3.org/2000/svg" xmlns:xlink="http://www.w3.org/1999/xlink" id="Layer_1" x="0px" y="0px" viewBox="0 0 500 500" style="enable-background:new 0 0 500 500;" xml:space="preserve">
<style type="text/css">
	.st0{fill:#80A4BB;}
	.st1{fill:#172C54;}
	.st2{fill:#F0F3F5;}
</style>
<circle class="st0" cx="250" cy="250" r="242.5"/>
<g>
	<path class="st1" d="M138.7,207.2c1.7-2.5,2.1-5.4,3.1-8.4c4.6-15.1,9.4-29.9,14-45c0.2-0.8,0.6-1.9,1.7-1.7c0.8,0,1.5,1,1.7,1.9   c3.4,10.1,6.5,20.3,9.6,30.4c2.5,7.7,4.8,15.3,8,23c1.7-5.2,4-10.5,5-15.9c1.9-8.4,5.4-15.9,7.7-24.1c0.4-1.7,1-3.4,1.5-5   c0.8-4-0.8-5.9-4.8-6.3c-1.7-0.2-4.8,0.4-4.6-2.1c0.2-2.1,2.9-1.3,4.8-1.3c7.1,0,14.4,0,21.6,0c1,0,2.7-0.4,2.7,1   c0.2,1.5-1.5,1.7-2.7,1.7c-6.9-0.2-10.5,3.8-12.6,10.1c-6.7,21.2-13.6,42.3-20.3,63.7c-0.2,1-0.4,2.1-1.7,2.1   c-1.5,0-1.3-1.3-1.5-2.1c-5.4-17-10.9-33.9-16.1-50.7c-0.2-0.8-0.4-1.5-1.5-2.1c-2.3,6.9-4.4,13.8-6.5,20.5   c-3.4,10.7-6.9,21.6-10.3,32.3c-0.2,0.8-0.2,2.5-1.9,2.3c-1.3-0.2-1.3-1.3-1.7-2.3c-6.9-21.6-13.8-43.1-20.7-64.7   c-2.1-6.7-4.6-8.4-11.5-8.6c-1.5,0-2.9,0-2.9-1.9c0.2-1.9,1.9-1,2.9-1c10.3,0,20.3,0,30.6,0c1,0,2.5-0.4,2.5,1.3   c0,1.5-1.5,1.5-2.5,1.5c-1,0-2.3,0-3.4,0.2c-4.4,0.8-6.1,3.1-4.8,7.3c4.4,14.2,9,28.5,13.4,42.7   C137.7,206.1,137.9,206.7,138.7,207.2z"/>
	<path class="st1" d="M399.2,152.7c6.7,0.2,16.1-0.8,25.3,1.7c7.7,2.1,14.4,5.4,19.5,12.1c10.5,13.6,10.5,28.1,4.2,42.9   c-3.6,8.2-10.9,13.2-19.3,16.5c-6.1,2.5-12.4,2.9-18.6,3.1c-11.1,0.2-22.2,0-33.3,0c-1,0-2.5,0.6-2.7-1c-0.2-1.9,1.5-1.7,2.5-1.7   c6.9-0.4,9.4-2.7,9.4-9.8c0.2-16.5,0.2-33.1,0.2-49.4c0-1.9-0.4-4-0.8-5.9c-0.8-3.8-2.9-5.2-6.7-5.4c-0.8,0-1.5,0-2.3,0   c-1.3,0-2.3-0.4-2.3-1.7c0-1.5,1.5-1,2.3-1C383.3,152.7,390,152.7,399.2,152.7z M397.1,189.2h0.2c0,9.2,0,18.4,0,27.6   c0,4.8,2.1,7.1,6.9,7.3c3.6,0.2,7.1,0.4,10.7,0c10.3-1.3,17.8-6.5,21.8-16.1c4-9.4,4.2-19.5,1.7-29.3c-2.7-10.5-8.8-17.6-19.7-20.1   c-6.1-1.5-12.4-0.8-18.4-1.3c-2.7-0.2-3.1,0.8-3.1,3.4C397.1,170.1,397.1,179.5,397.1,189.2z"/>
	<path class="st1" d="M317.3,152.7c5.4,0.4,13-1,20.5,0.8c4,1,7.7,2.3,11.3,4.8c7.7,5.7,8.8,19.3,4.8,25.8   c-3.8,6.1-9.2,9.2-16.1,10.5c-1,0.2-2.7-0.2-3.1,1.3c-0.2,1,1,1.7,1.9,2.5c4,4.8,8,9.4,11.9,14.2c4.2,4.8,9.4,8.8,15.1,11.5   c1.7,0.8,3.4,1.7,5,2.3c0.8,0.4,1.9,0.4,1.7,1.7c-0.2,0.8-1.3,1-2.3,1c-4.4,0-8.8-0.6-13,0.2c-5.2,0.8-8-2.1-10.5-5.4   c-6.9-9-13.6-18-20.5-27c-1.5-2.1-3.6-1.5-5.4-1c-1.7,0.2-1,1.9-1,3.1c0,6.9,0,13.6,0,20.5c0,3.6,3.4,6.5,8,6.9   c1.7,0.2,4.4-0.4,4.2,1.7c-0.2,2.3-2.9,1.3-4.4,1.3c-9,0-18.2,0-27.2,0c-1,0-2.7,0.6-2.9-1c-0.2-1.9,1.5-1.5,2.7-1.7   c7.7-1,9.6-3.4,9.6-11.7c0-13,0-26.2,0-39.2c0-4.8,0.6-9.6-1-14.4c-1.3-3.8-3.4-5.2-7.5-5.7c-1.5-0.2-4.2,0.6-4.2-1.5   c0-1.9,2.7-1.3,4.2-1.3C304.1,152.7,309.6,152.7,317.3,152.7z M317.3,176.6c0,4.8,0,8.2,0,11.7c0,1.9,0.6,2.7,2.5,2.5   c2.9,0,6.1,0,9,0c8.4-0.2,13.4-3.8,15.5-11.7c1.7-6.5,0-15.9-6.3-19.5c-6.1-3.6-12.8-2.3-19.3-2.3c-0.6,0-1.3,0.4-1.5,1.3   c-0.2,1.9-0.8,4-0.6,5.9C317.8,169,317.1,173.4,317.3,176.6z"/>
	<path class="st1" d="M250.3,150.4c7.7,0,17.4,3.1,26,10.1c4.4,3.6,8,7.3,10.5,12.4c6.9,14.2,6.5,29.5-4.2,42.5   c-15.9,19.3-42.3,20.9-60.3,7.5c-18.6-13.8-22-38.3-8.2-55.9C222.5,156.1,233.8,150.8,250.3,150.4z M217.9,190.8   c0.4,10.3,2.9,19.3,9.8,26.8c10.1,11.1,29.9,10.5,39,2.1c8-7.3,11.7-16.1,12.1-26.8c0.4-13.2-3.1-24.7-14.4-32.9   c-8.6-6.3-23.7-6.1-32.3,0C221.6,167.8,218.5,178.9,217.9,190.8z"/>
	<path class="st1" d="M92,163.8c0,3.8,0,7.5,0,11.3c0,1.3,0.2,2.5-1.5,2.7c-1.7,0.2-1.5-1.3-1.5-2.3c-0.8-6.3-2.7-12.1-8-16.3   c-4.8-4-12.8-4.8-18.2-1.9c-6.9,3.8-7.5,14-1.5,18.6c7.5,5.4,16.3,9,24.3,13.4c5.7,3.1,10.1,7.3,11.7,14   c2.9,12.8-4.8,24.7-17.6,27.4c-8.2,1.7-15.3-0.6-22.4-4c-4-1.9-4.6-1.7-6.5,2.3c-0.4,1-0.8,2.1-2.3,1.9c-1.7-0.2-1-1.7-1-2.7   c0-7.5,0-15.1,0-22.6c0-0.8-0.4-2.1,1-2.3c1.7-0.2,1.7,1,1.7,2.1c1.3,7.3,4,13.8,11.1,17.6c7.3,4,18.2,4.6,24.5-1.7   c5.2-5.2,5.2-11.9,0-17.4c-4.4-4.4-10.1-6.7-15.3-9.6c-4.8-2.7-10.1-4.6-14.2-8.4c-6.9-6.5-9.8-16.1-6.7-23.2   c3.6-8.4,12.6-13.4,22.6-12.6c3.6,0.4,6.9,1.3,10.1,3.1c3.6,2.1,4.2,1.9,6.3-1.5c0.6-1,0.8-2.5,2.5-2.1c1.7,0.4,1,2.1,1,3.1   C92,156.7,92,160.3,92,163.8L92,163.8z"/>
</g>
<g>
	<path class="st2" d="M99.5,402.4c0-33.7,0-47.8-0.2-81.5c0-9.8,0-19.6,0-29.4c0-1.8-0.2-3.7,2.7-3.3c2,0.4,5.5-1.6,5.1,3.1   c-0.2,2.5-0.2,4.7-0.2,7.2c0,0.4-0.2,1.2,0.4,1.4c0.6,0.2,1-0.2,1.2-0.6c7.8-11.4,25.3-15.3,38.2-10.8c13.5,4.7,21,14.5,23.5,28.2   c1.8,9.8,1,19.4-3.9,28.4c-6.1,11-15.9,16.3-28.2,17.4c-8.2,0.6-15.7-1.2-22.7-5.1c-2.7-1.4-4.5-4.1-6.7-6.3   c-0.4-0.4-0.4-1.6-1.6-1.2c-0.8,0.4-0.6,1.2-0.4,2c0,23.1,0,26.6,0.2,49.6c0,0.4-0.2,0.6-0.2,1C104.2,402.4,101.9,402.4,99.5,402.4   z M106.4,325.5c0,2.7,0.2,5.1,0.8,7.8c2.7,11.2,9.4,18.8,20.8,21.5c10.4,2.2,20,0.4,27.4-8.2c9.6-11,10.2-23.7,4.7-36.8   c-6.5-15.9-27.8-21.7-41.5-11.2C109.9,305.3,106.8,314.9,106.4,325.5z"/>
	<path class="st2" d="M388,258.2c0,17.4,0,3.2-0.2,20.5c0,0.4,0,0.6,0,1c0,8.4,0,8.4,8.6,8.4c4.5,0,4.5,0.2,4.3,4.5   c0,2-1,2.5-2.9,2.5c-2.7-0.2-5.1,0-7.8,0c-1.8,0-2.5,0.6-2.5,2.5c0.2,20,0,40.1,0.2,60.1c0,3.9-2,3.5-4.3,3.7   c-2.9,0.2-3.5-1-3.5-3.5c0.2-18.4,0-36.8,0.2-55.2c0-1.8-0.6-3.7,0-5.5c0.4-1-0.4-1.8-1.6-1.8c-1,0-2-0.2-2.9,0   c-3.1,0.6-3.7-0.8-3.9-3.7c0-3.3,1.4-3.5,3.9-3.3c4.5,0.2,4.3,0,4.3-4.3c0-18,0-4.8,0-22.8c0-0.8-0.2-1.6-0.2-2.7   C382.7,258.2,385.4,258.2,388,258.2z"/>
	<path class="st2" d="M214.5,361.9c-8.2-0.6-14.9-4.1-21-9.4c-11.4-9.8-14.3-22.5-11.9-36.4c1.4-8.4,6.1-15.5,12.9-21.1   c15.1-12.1,35.2-11,48.6-0.6c13.5,10.4,17.6,28.6,11.6,43.9c-3.7,9.6-10.6,16.1-19.6,20.6c-3.3,1.6-6.7,2.9-10.6,2.9   C221.5,361.9,218,361.9,214.5,361.9z M218.6,355.4c17.8,0,31.7-13.7,31.5-30.7c-0.2-18.2-13.3-31.3-31.7-31.5   c-16.8-0.2-30.2,14.1-30,31.7C188.6,341.7,202.2,355.6,218.6,355.4z"/>
	<path class="st2" d="M305.3,289.2c0.2-0.2,0.4-0.6,0.6-0.8c1.8,0.2,3.7,0.6,5.5-0.2c2,0.8,1.2,2.5,1.2,3.9c0,2-0.2,4.1-0.4,6.5   c3.3-2.5,5.1-5.7,8-7.8c9-6.1,27-6.5,34.1,5.1c3.1,4.9,3.9,10.2,4.1,15.7c0.2,15.5,0.2,31.1,0.2,46.8c0,1.8-0.4,2.7-2.5,2.7   c-5.1,0-5.1,0-4.9-4.9c0-14.3,0-28.8-0.2-43.1c0-2.9-0.4-5.7-1-8.6c-1.8-7.8-8.6-11.9-18.2-10.8c-10,1-15.7,6.7-18,17.8   c-1,4.7-1.4,9.4-1.4,14.1c0,10.6,0,21.5,0.2,32.1c0,2.7-0.6,3.7-3.3,3.3c-0.6,0-1-0.2-1.6,0c-2.9,0.6-3.3-0.6-2.9-3.1   c0-0.6,0-1,0.2-1.6c0.2-0.8,0.4-1.4,0.4-2.2c0-17.4,0-34.9,0-52.3c0-0.8-0.2-1.4-0.4-2.2c0-1.6,0-3.3,0-4.9   C305.7,292.6,305.5,291,305.3,289.2z"/>
	<path class="st2" d="M281.5,324.7c0,11-0.2,22.3,0,33.3c0,3.9-2.5,2.5-4.3,2.9c-2,0.4-3.5,0-3.5-2.7c0-22.3,0.2-44.8,0-67   c0-2.9,1.4-3.3,3.7-3.1c2,0.2,4.1-0.6,4.1,2.9C281.3,302.2,281.5,313.5,281.5,324.7L281.5,324.7z"/>
</g>
</svg>
