<?xml version="1.0" encoding="utf-8"?>
<svg xmlns="http://www.w3.org/2000/svg" id="Layer_1" x="0px" y="0px" viewBox="139.478 328.418 1647.218 561.176" style="enable-background:new 0 0 1920 1080;">
  <style type="text/css">
	.st0{fill:#EEBF32;}
</style>
  <g>
    <polygon points="528.7,397.8 444.7,704.8 395.9,704.8 336.5,481.8 276.2,704.8 227.4,704.8 143.4,397.8 191.8,397.8 251.6,620.8 &#10;&#9;&#9;311.8,397.8 359.8,397.8 420.5,620.8 480.3,397.8 &#9;"/>
    <path d="M551.1,398.7l48.4-4V470l-0.9,28.1h1.8c22.4-8.4,40.5-12.3,62.5-12.3c39.2,0,65.5,17.6,65.5,84.9v134.2H680V574.6 c0-40.5-19.8-45.7-42.2-45.7c-14.1,0-26,3.1-38.3,6.6v169.3h-48.4V398.7z"/>
    <path d="M794.7,401.8c25.1,0,29,14.5,29,30.8c0,16.3-5.3,31.2-29,31.2c-23.8,0-28.6-15-28.6-31.2 C766.1,416.3,770.5,401.8,794.7,401.8 M770.5,488.9h48.4v216h-48.4V488.9z"/>
    <path d="M859.8,488.9h33l6.6,17.6h3.1c12.8-11,33-20.7,59.4-20.7c3.1,0,6.6,0,10.1,0.4v47.5c-8.8-1.3-18-2.6-27.3-2.6 c-13.2,0-23.8,3.1-36.5,8.8v165h-48.4V488.9z"/>
    <polygon points="992.7,704.8 992.7,398.7 1041,394.8 1041,704.8 &#9;"/>
    <path d="M1384.9,485.8c68.6,0,95,40.5,95,112.2c0,67.3-24.6,111.3-95.9,111.3c-71.2,0-96.3-44-96.3-111.3 C1287.7,526.3,1316.3,485.8,1384.9,485.8 M1430.7,597.9c0-40.9-6.6-74.3-45.3-74.3c-39.1,0-48.8,32.1-48.8,74.3 c0,39.1,7.9,73,46.6,73C1421.9,671,1430.7,638.9,1430.7,597.9"/>
    <path d="M1601.9,485.8c68.6,0,95,40.5,95,112.2c0,67.3-24.6,111.3-95.9,111.3c-71.2,0-96.3-44-96.3-111.3 C1504.7,526.3,1533.3,485.8,1601.9,485.8 M1647.6,597.9c0-40.9-6.6-74.3-45.3-74.3c-39.1,0-48.8,32.1-48.8,74.3 c0,39.1,7.9,73,46.6,73C1638.8,671,1647.6,638.9,1647.6,597.9"/>
    <polygon points="1728.2,704.8 1728.2,398.7 1776.6,394.8 1776.6,704.8 &#9;"/>
    <path d="M1080.6,488.9h36.5l4,15.8c14.5-7.9,41.3-18.9,65.5-18.9c44,0,76.1,32.1,76.1,109.1c0,75.7-33.9,113.1-90.2,113.1 c-20.7,0-43.5-4.4-43.5-4.4v99l-48.4,5.3V488.9z M1129,664.8c13.6,0.4,21.1,0.9,35.2,0.9c29.9,0,49.7-15.8,49.7-78.7 c0-43.1-17.6-54.5-49.3-54.5c-12.3,0-23.7,2.2-35.6,6.2V664.8z"/>
    <path class="st0" d="M1320.1,356.2c-36.2-41.9-151-5.1-279.1,83.6v22.3c112.8-80.2,212.3-117.2,240.8-84.2 c35.6,41.2-52.9,176-197.6,300.9c-144.8,124.9-291,192.6-326.5,151.4c-18.5-21.4-3.4-68.1,35.5-125.4h-22.7 c-48.2,72-66.3,132.4-41.6,161.1c45.2,52.3,214.1-19.3,377.3-160.1C1269.5,565,1365.3,408.5,1320.1,356.2"/>
  </g>
</svg>
